<svg id="Layer_1" data-name="Layer 1" xmlns="http://www.w3.org/2000/svg" viewBox="0 0 771.78 140.83"><defs><style>.cls-1{fill:#863e1d;}</style></defs><g transform="translate(0, 140.83) rotate(-90)"><path class="cls-1" d="M302.07,61.43h-87.5a.7.7,0,0,1-.7-.7V37.61a.68.68,0,0,1,.5-.66l.29-.09a.68.68,0,0,1,.83.36,14.57,14.57,0,0,1,1.29,3.17c1.57,7.93,5,10.88,13.17,10.93q38.52.21,77,.35c10.67,0,12.35-1.26,15.46-11.53a20.14,20.14,0,0,1,1.7-3.4.69.69,0,0,1,1.28.14,18.68,18.68,0,0,1,1,4.47c.15,7.93-.07,15.87.22,23.79.14,3.8-1.52,5.61-4.68,7.3q-38,20.25-75.82,40.79c-1.82,1-3.56,2.1-5.73,3.42a.69.69,0,0,0,.06,1.22c7.33,3.52,14.1,6.8,20.9,10,20.5,9.69,41,19.31,61.48,29.12,1.57.75,3.46,2.73,3.58,4.26.4,5.56.18,11.17.17,17.06a.7.7,0,0,1-.67.69c-1.93.1-3.41.21-4.89.21-28.32,0-56.65,0-85,.13a74.33,74.33,0,0,0-8.37.91c-6.43.72-10.21,4.22-11.4,10.62a17.64,17.64,0,0,1-1.45,3.74.71.71,0,0,1-.75.41l-1.11-.19a.68.68,0,0,1-.58-.74c.83-9.48,1.07-19.07,2.88-28.36.94-4.79,6.49-5.66,11.23-5.67l72.51-.1a11.62,11.62,0,0,0,4.38-.59.69.69,0,0,0,.05-1.28c-5.66-2.59-11.34-5.14-17-7.78Q252.14,134.24,217.81,118c-1.75-.83-4.15-3-4-4.37.16-1.86,2.07-4.24,3.87-5.21,27.69-15,55.5-29.84,83.27-44.71.54-.3,1-.66,1.56-1a.72.72,0,0,0,.3-.62h0A.7.7,0,0,0,302.07,61.43Z" transform="translate(-210.68 -36.38)"/><path class="cls-1" d="M328.14,257.72c.09,28.12-9.41,47.24-31.77,57.84-26.74,12.68-66.51,4.82-80.12-26.47-10.69-24.57-6.95-61.71,19.51-78.17C258.12,197,297.94,197.29,317,223.33A58.21,58.21,0,0,1,328.14,257.72Zm-58.05-34.64a1,1,0,0,0-.24,0c-9.15,1.74-18.66,2.77-27.69,5.45-15.53,4.62-24.91,17.18-25,33.2,0,12.7,4.32,24.5,21.81,31.84,20.29,8.52,41.07,8.41,61.37-.43,14.42-6.28,21.63-18.35,21.27-33.47-.37-15.91-8.57-26.45-23-31.3C289.71,225.39,280,224.82,270.09,223.08Z" transform="translate(-210.68 -36.38)"/><path class="cls-1" d="M318.08,745.94H277.94a.7.7,0,0,0-.7.69v42.5a.69.69,0,0,1-.61.69c-7.19.88-7.41.6-7.46-6.23-.09-12.18,0-24.36,0-37a.69.69,0,0,0-.69-.7c-13.9,0-27.78-.26-41.63.29-2.18.09-5.91,3.94-6,6.18a318.91,318.91,0,0,0,.2,34.43c.53,8.24,6.27,13.33,13.43,16.82,1.31.64,2.56,1.41,3.83,2.14a.69.69,0,0,1,.32.8l-.33,1.13a.7.7,0,0,1-.77.49c-4.2-.61-8.44-1-12.57-1.95-11.44-2.52-11.45-2.62-11.46-14q0-26.9,0-53.79c0-9.36,3.58-13,13-13q41,0,82.09,0c9.46,0,10.73-1,13.76-9.84a7.81,7.81,0,0,1,2.64-3.77.71.71,0,0,1,1.13.45,37,37,0,0,1,.49,4.79c.07,25.29,0,50.58.21,75.87,0,4.14-1.59,5.89-5.39,6.14-6.59.43-13.19.81-19.78,1.2a.68.68,0,0,1-.73-.58l-.21-1.33a.69.69,0,0,1,.45-.77c1.91-.69,3.8-1.47,5.76-2,7.64-2,11.43-7.48,11.78-14.71.54-11.23.16-22.51.15-34.3A.69.69,0,0,0,318.08,745.94Z" transform="translate(-210.68 -36.38)"/><path class="cls-1" d="M213.73,450.27a.69.69,0,0,1,1-.57L313,492.52c3.25,1.41,6.47,2.91,9.74,4.28,3.51,1.46,5,3.9,5.22,7.8.18,3.7-.86,5.6-4.41,7.19-31.94,14.32-63.76,28.92-95.68,43.32-5.55,2.51-10.23,5.53-11.5,12a2.72,2.72,0,0,1-.76,1.53.69.69,0,0,1-1.16-.44c-1-8.86-2.54-17.33,1-25.29,1.26-2.78,4.25-5.31,7.06-6.75a220.9,220.9,0,0,1,20.54-9c3.33-1.3,4.51-3.15,4.46-6.7-.19-14.14-.23-28.29,0-42.44,0-3.46-1.35-5.14-4.26-6.31-7.3-2.94-14.57-6-21.84-9C213.16,459.25,212.89,459.12,213.73,450.27ZM305,498l-48.24-20.87a.69.69,0,0,0-1,.64v42.6a.7.7,0,0,0,1,.64L305,499.25A.69.69,0,0,0,305,498Z" transform="translate(-210.68 -36.38)"/><path class="cls-1" d="M295.28,434.92a144,144,0,0,0,13.2-7.56c7.91-5.45,11.54-13.58,12.65-22.92,3.9-32.77-18.51-44.89-42-47.09-13.44-1.25-26.63.59-39,6.47-26.2,12.4-26.76,43.31-15.3,61.51,3,4.81,7.23,8.88,11.47,13.75a.69.69,0,0,1-.52,1.15c-6.35,0-10.57-3.62-14-7.77-6.89-8.35-10-18.3-10.57-29.12-.74-14.9.53-29.35,8.61-42.44,10.07-16.31,25.26-24.43,43.78-26.09s35.71,2.56,48.91,16.76c9.79,10.52,14.84,23.27,15.43,37.7.58,14.23-.62,28.12-6.89,41.27-2.82,5.9-6.44,9.39-13.5,8.4a105,105,0,0,0-11.39-.66Z" transform="translate(-210.68 -36.38)"/><path class="cls-1" d="M277.05,599.36v40.38a.69.69,0,0,1-.52.67c-6.23,1.67-7.49.66-7.51-5.31,0-11.65,0-23.3,0-35.63a.69.69,0,0,0-.69-.7H214.44a.7.7,0,0,1-.7-.7V580a.7.7,0,0,1,.7-.69h5.92q43.89,0,87.8,0c9.64,0,11.72-1.73,14.16-10.91a12.53,12.53,0,0,1,2.1-3.51.69.69,0,0,1,.81-.26l.47.17a.71.71,0,0,1,.46.58,37.65,37.65,0,0,1,.42,4.35c.05,24.55,0,49.09.17,73.64,0,5.11-1.34,7.73-6.91,7.7-6,0-12,.51-18,.83a.69.69,0,0,1-.72-.56l-.2-1.06a.68.68,0,0,1,.41-.76c1.75-.74,3.48-1.53,5.26-2.17,8.09-2.94,12-7.89,12.25-16.33.23-9.25,0-18.5.09-27.75,0-3-.78-4.63-4.1-4.61-12,.08-24.1,0-37,0A.7.7,0,0,0,277.05,599.36Z" transform="translate(-210.68 -36.38)"/><path class="cls-1" d="M214.15,705.4a.7.7,0,0,1-.6-.68c0-8.2-.49-16.44.19-24.58.45-5.44,5.22-6.8,10.15-6.8l63.39,0c7.36,0,14.73.13,22.08-.13s11.63-1.08,13.14-10a9.74,9.74,0,0,1,1.82-3.3.69.69,0,0,1,.79-.29l.48.16a.69.69,0,0,1,.48.66v31.45a.69.69,0,0,1-.69.69h-5.49l-86,0a56,56,0,0,0-6.22.11c-5.76.64-10.67,2.42-11.53,9.28a11.29,11.29,0,0,1-1.13,3,.69.69,0,0,1-.73.41Z" transform="translate(-210.68 -36.38)"/><path class="cls-1" d="M341.78,729.31a.69.69,0,0,1,1-.78c6.79,4.15,10.51,12.21,7.8,18.81-4,9.66-8.71,19-13.59,28.36a.69.69,0,0,1-1.31-.32C335.86,759.86,346.42,745.54,341.78,729.31Z" transform="translate(-210.68 -36.38)"/></g></svg>